<svg width="128" height="128" viewBox="0 0 160 160" xmlns="http://www.w3.org/2000/svg">
  <defs>
    <linearGradient id="g" x1="0%" y1="0%" x2="100%" y2="100%">
      <stop offset="0%" style="stop-color:#667eea"/>
      <stop offset="100%" style="stop-color:#764ba2"/>
    </linearGradient>
  </defs>
  <!-- 身体 -->
  <ellipse cx="80" cy="90" rx="42" ry="28" fill="url(#g)" transform="rotate(-5,80,90)"/>
  <!-- 头部 -->
  <ellipse cx="55" cy="78" rx="28" ry="24" fill="url(#g)"/>
  <!-- 尾巴 -->
  <path d="M118,85 Q140,68 148,75 Q140,88 148,98 Q140,102 118,90Z" fill="#764ba2"/>
  <!-- 大眼睛 -->
  <circle cx="48" cy="70" r="10" fill="#ffffff"/>
  <circle cx="50" cy="68" r="5.5" fill="#1e1b4b"/>
  <circle cx="51.5" cy="66.5" r="2" fill="#ffffff"/>
  <!-- 嘴 -->
  <path d="M32,80 Q36,84 40,82" fill="none" stroke="#4c1d95" stroke-width="1.5" stroke-linecap="round"/>
  <!-- 第一背鳍 (spiny) -->
  <path d="M68,62 L72,48 L80,50 L85,62Z" fill="#667eea"/>
  <!-- 第二背鳍 (soft) -->
  <path d="M88,64 L96,52 L106,54 L108,66Z" fill="#818cf8"/>
  <!-- 腹鳍 (suction disc) -->
  <ellipse cx="72" cy="112" rx="18" ry="6" fill="#a78bfa" opacity="0.5"/>
  <!-- 胸鳍 -->
  <path d="M50,90 Q40,100 48,102" fill="#7c3aed"/>
  <!-- 身体斑点/纹路 -->
  <circle cx="75" cy="82" r="2" fill="#ffffff" opacity="0.2"/>
  <circle cx="85" cy="88" r="1.5" fill="#ffffff" opacity="0.2"/>
  <circle cx="95" cy="82" r="2" fill="#ffffff" opacity="0.15"/>
  <circle cx="88" cy="96" r="1.5" fill="#ffffff" opacity="0.2"/>
  <circle cx="78" cy="94" r="2" fill="#ffffff" opacity="0.15"/>
</svg>
